<mxfile host="Electron" modified="2024-05-23T08:30:55.291Z" agent="Mozilla/5.0 (Windows NT 10.0; Win64; x64) AppleWebKit/537.36 (KHTML, like Gecko) draw.io/24.0.4 Chrome/120.0.6099.109 Electron/28.1.0 Safari/537.36" etag="Ep7UdmHShh2j2ubCP0Ad" version="24.0.4" type="device">
  <diagram name="Seite-1" id="XtPtEbJ-YFwOECasJ3nE">
    <mxGraphModel dx="637" dy="653" grid="1" gridSize="10" guides="1" tooltips="1" connect="1" arrows="1" fold="1" page="1" pageScale="1" pageWidth="827" pageHeight="1169" math="0" shadow="0">
      <root>
        <mxCell id="0" />
        <mxCell id="1" parent="0" />
        <mxCell id="Cp2ujjPXEhmswo3qMn4P-21" style="edgeStyle=orthogonalEdgeStyle;rounded=0;orthogonalLoop=1;jettySize=auto;html=1;exitX=0;exitY=0.5;exitDx=0;exitDy=0;entryX=1;entryY=0.5;entryDx=0;entryDy=0;" edge="1" parent="1" source="Cp2ujjPXEhmswo3qMn4P-1" target="Cp2ujjPXEhmswo3qMn4P-4">
          <mxGeometry relative="1" as="geometry" />
        </mxCell>
        <mxCell id="Cp2ujjPXEhmswo3qMn4P-22" value="get" style="edgeLabel;html=1;align=center;verticalAlign=middle;resizable=0;points=[];" vertex="1" connectable="0" parent="Cp2ujjPXEhmswo3qMn4P-21">
          <mxGeometry x="-0.22" y="1" relative="1" as="geometry">
            <mxPoint x="-9" y="-1" as="offset" />
          </mxGeometry>
        </mxCell>
        <mxCell id="Cp2ujjPXEhmswo3qMn4P-23" style="edgeStyle=orthogonalEdgeStyle;rounded=0;orthogonalLoop=1;jettySize=auto;html=1;exitX=0.5;exitY=0;exitDx=0;exitDy=0;entryX=0.5;entryY=1;entryDx=0;entryDy=0;" edge="1" parent="1" source="Cp2ujjPXEhmswo3qMn4P-1" target="Cp2ujjPXEhmswo3qMn4P-16">
          <mxGeometry relative="1" as="geometry" />
        </mxCell>
        <mxCell id="Cp2ujjPXEhmswo3qMn4P-24" value="letters,&lt;br&gt;export" style="edgeLabel;html=1;align=center;verticalAlign=middle;resizable=0;points=[];" vertex="1" connectable="0" parent="Cp2ujjPXEhmswo3qMn4P-23">
          <mxGeometry x="0.2512" relative="1" as="geometry">
            <mxPoint y="10" as="offset" />
          </mxGeometry>
        </mxCell>
        <mxCell id="Cp2ujjPXEhmswo3qMn4P-27" style="edgeStyle=orthogonalEdgeStyle;rounded=0;orthogonalLoop=1;jettySize=auto;html=1;exitX=1;exitY=0.5;exitDx=0;exitDy=0;entryX=0;entryY=0.5;entryDx=0;entryDy=0;" edge="1" parent="1" source="Cp2ujjPXEhmswo3qMn4P-1" target="Cp2ujjPXEhmswo3qMn4P-18">
          <mxGeometry relative="1" as="geometry" />
        </mxCell>
        <mxCell id="Cp2ujjPXEhmswo3qMn4P-28" value="print" style="edgeLabel;html=1;align=center;verticalAlign=middle;resizable=0;points=[];" vertex="1" connectable="0" parent="Cp2ujjPXEhmswo3qMn4P-27">
          <mxGeometry x="0.1202" y="-2" relative="1" as="geometry">
            <mxPoint x="-5" y="-2" as="offset" />
          </mxGeometry>
        </mxCell>
        <mxCell id="Cp2ujjPXEhmswo3qMn4P-1" value="System" style="rounded=0;whiteSpace=wrap;html=1;" vertex="1" parent="1">
          <mxGeometry x="360" y="400" width="80" height="40" as="geometry" />
        </mxCell>
        <mxCell id="Cp2ujjPXEhmswo3qMn4P-3" value="Input" style="shape=table;startSize=40;container=1;collapsible=0;childLayout=tableLayout;" vertex="1" parent="1">
          <mxGeometry x="160" y="360" width="120" height="80" as="geometry" />
        </mxCell>
        <mxCell id="Cp2ujjPXEhmswo3qMn4P-4" value="" style="shape=tableRow;horizontal=0;startSize=0;swimlaneHead=0;swimlaneBody=0;strokeColor=inherit;top=0;left=0;bottom=0;right=0;collapsible=0;dropTarget=0;fillColor=none;points=[[0,0.5],[1,0.5]];portConstraint=eastwest;" vertex="1" parent="Cp2ujjPXEhmswo3qMn4P-3">
          <mxGeometry y="40" width="120" height="40" as="geometry" />
        </mxCell>
        <mxCell id="Cp2ujjPXEhmswo3qMn4P-5" value="Kundendaten (CSV)" style="shape=partialRectangle;html=1;whiteSpace=wrap;connectable=0;strokeColor=inherit;overflow=hidden;fillColor=none;top=0;left=0;bottom=0;right=0;pointerEvents=1;" vertex="1" parent="Cp2ujjPXEhmswo3qMn4P-4">
          <mxGeometry width="120" height="40" as="geometry">
            <mxRectangle width="120" height="40" as="alternateBounds" />
          </mxGeometry>
        </mxCell>
        <mxCell id="Cp2ujjPXEhmswo3qMn4P-25" style="edgeStyle=orthogonalEdgeStyle;rounded=0;orthogonalLoop=1;jettySize=auto;html=1;exitX=1;exitY=0.5;exitDx=0;exitDy=0;entryX=0;entryY=0.5;entryDx=0;entryDy=0;" edge="1" parent="1" source="Cp2ujjPXEhmswo3qMn4P-16" target="Cp2ujjPXEhmswo3qMn4P-17">
          <mxGeometry relative="1" as="geometry" />
        </mxCell>
        <mxCell id="Cp2ujjPXEhmswo3qMn4P-26" value="send" style="edgeLabel;html=1;align=center;verticalAlign=middle;resizable=0;points=[];" vertex="1" connectable="0" parent="Cp2ujjPXEhmswo3qMn4P-25">
          <mxGeometry x="0.2036" y="-1" relative="1" as="geometry">
            <mxPoint x="-8" y="-1" as="offset" />
          </mxGeometry>
        </mxCell>
        <mxCell id="Cp2ujjPXEhmswo3qMn4P-16" value="archive.zip" style="rounded=0;whiteSpace=wrap;html=1;" vertex="1" parent="1">
          <mxGeometry x="360" y="280" width="80" height="40" as="geometry" />
        </mxCell>
        <mxCell id="Cp2ujjPXEhmswo3qMn4P-17" value="mail" style="rounded=0;whiteSpace=wrap;html=1;" vertex="1" parent="1">
          <mxGeometry x="520" y="280" width="80" height="40" as="geometry" />
        </mxCell>
        <mxCell id="Cp2ujjPXEhmswo3qMn4P-18" value="brief" style="rounded=0;whiteSpace=wrap;html=1;" vertex="1" parent="1">
          <mxGeometry x="520" y="400" width="80" height="40" as="geometry" />
        </mxCell>
      </root>
    </mxGraphModel>
  </diagram>
</mxfile>
